<?xml version="1.0" standalone="no"?>
<!DOCTYPE svg PUBLIC "-//W3C//DTD SVG 1.1//EN" "http://www.w3.org/Graphics/SVG/1.1/DTD/svg11.dtd" >
<svg xmlns="http://www.w3.org/2000/svg">
<metadata></metadata>
<defs>
<font id="HeliosLightCRegular" horiz-adv-x="1138" >
<font-face units-per-em="2048" ascent="1614" descent="-434" />
<missing-glyph horiz-adv-x="569" />
<glyph horiz-adv-x="0" />
<glyph horiz-adv-x="2048" />
<glyph unicode=" "  horiz-adv-x="569" />
<glyph unicode="&#x09;" horiz-adv-x="569" />
<glyph unicode="&#xa0;" horiz-adv-x="569" />
<glyph unicode="!" horiz-adv-x="681" d="M295 371l-29 645v459h150v-459l-29 -645h-92zM416 0h-150v180h150v-180z" />
<glyph unicode="&#x22;" horiz-adv-x="569" d="M117 1012v463h106v-463h-106zM344 1012v463h107v-463h-107z" />
<glyph unicode="#" d="M1032 588v-121h-227l-66 -467h-121l64 467h-281l-69 -467h-121l70 467h-226v121h244l43 286h-229v121h245l66 435h123l-66 -435h279l63 435h121l-63 -435h204v-121h-221l-41 -286h209zM743 874h-278l-45 -286h282z" />
<glyph unicode="$" d="M522 807v526q-117 0 -196.5 -72t-79.5 -184q0 -52 15 -93t37.5 -67t62 -48t73.5 -34.5t88 -27.5zM618 659v-587q129 0 220.5 85t91.5 212q0 59 -16.5 104.5t-42.5 74.5t-69 51.5t-84 34.5t-100 25zM618 -39v-156h-96v156q-114 0 -215.5 53.5t-163 144.5t-61.5 195v62h127 q0 -140 87.5 -238.5t225.5 -105.5v608q-75 18 -129.5 37t-110 50t-90 70.5t-56 99t-21.5 134.5q0 166 117.5 269.5t289.5 103.5v125h96v-125q173 0 283.5 -96t116.5 -265h-133q0 112 -77 181t-190 69v-545q64 -15 109.5 -28t95 -33t83 -42.5t65 -55t50 -72t29.5 -93 t11 -118.5q0 -87 -39 -161t-102 -122t-142 -75t-160 -27z" />
<glyph unicode="%" horiz-adv-x="1820" d="M1348 678q140 0 240 -100t100 -240q0 -139 -100 -238.5t-240 -99.5q-139 0 -238.5 100t-99.5 238q0 139 99.5 239.5t238.5 100.5zM1348 561q-91 0 -156.5 -66t-65.5 -157q0 -90 66 -155.5t156 -65.5q89 0 156 66t67 155q0 90 -66.5 156.5t-156.5 66.5zM475 1430 q139 0 239.5 -100t100.5 -240q0 -139 -100 -238.5t-240 -99.5q-139 0 -238.5 100t-99.5 238q0 139 99.5 239.5t238.5 100.5zM475 1313q-91 0 -156 -66t-65 -157q0 -90 66 -156t155 -66t156 66.5t67 155.5q0 90 -66.5 156.5t-156.5 66.5zM1368 1444l-813 -1473h-106l813 1473 h106z" />
<glyph unicode="&#x26;" horiz-adv-x="1366" d="M930 268l-420 500q-126 -59 -206.5 -161t-80.5 -218q0 -144 94 -230.5t238 -86.5q211 0 375 196zM600 1364q-80 0 -138.5 -48.5t-58.5 -127.5q0 -94 154 -277q120 68 175.5 130.5t55.5 138.5q0 74 -51 129t-137 55zM1061 668h121q-11 -242 -103 -385l240 -283h-166 l-143 174q-94 -114 -204.5 -163.5t-260.5 -49.5q-196 0 -328.5 122t-132.5 316q0 80 28 151.5t78 127.5t111 99.5t135 78.5q-72 83 -114.5 162.5t-42.5 167.5q0 135 95 212t236 77q134 0 222 -83t88 -202q0 -64 -18 -115t-58.5 -95t-88.5 -79.5t-126 -81.5l370 -438 q62 105 62 287z" />
<glyph unicode="'" horiz-adv-x="454" d="M174 1012v463h107v-463h-107z" />
<glyph unicode="(" horiz-adv-x="681" d="M463 1513h104q-315 -457 -315 -956q0 -477 315 -948h-104q-121 167 -193 302t-114.5 300t-42.5 354q0 268 87 490.5t263 457.5z" />
<glyph unicode=")" horiz-adv-x="681" d="M115 1513h104q121 -167 193 -302t114.5 -300t42.5 -354q0 -268 -87 -490.5t-263 -457.5h-104q315 457 315 954q0 479 -315 950z" />
<glyph unicode="*" horiz-adv-x="796" d="M127 1323l227 -88v240h86v-240l234 86l31 -90l-234 -76l154 -217l-80 -49l-152 221l-160 -217l-71 55l157 207l-229 82z" />
<glyph unicode="+" horiz-adv-x="1351" d="M614 573v451h123v-451h451v-122h-451v-451h-123v451h-450v122h450z" />
<glyph unicode="," horiz-adv-x="569" d="M209 180h149v-241q0 -86 -40.5 -142.5t-108.5 -77.5v76q70 42 70 135v70h-70v180z" />
<glyph unicode="-" horiz-adv-x="681" d="M82 573h518v-122h-518v122z" />
<glyph unicode="." horiz-adv-x="569" d="M358 0h-149v180h149v-180z" />
<glyph unicode="/" horiz-adv-x="569" d="M590 1513l-481 -1697h-115l481 1697h115z" />
<glyph unicode="0" d="M926 711q0 84 -6 154.5t-20 144t-40.5 129.5t-65 101t-97 69t-132.5 24q-354 0 -354 -637q0 -116 10.5 -207t36 -169t66 -129.5t102.5 -80t143 -28.5q75 0 134 25.5t97 73.5t64 105.5t39 133t18 143t5 148.5zM569 1444q89 0 161.5 -24.5t122.5 -64.5t87.5 -100t59.5 -123 t35 -141.5t17.5 -147t4.5 -147.5q0 -123 -12.5 -223.5t-45.5 -196.5t-86.5 -161t-140.5 -104.5t-203 -39.5t-203.5 39.5t-141 105t-87 163.5t-45.5 201t-12 231q0 84 5 156t19 148.5t37 137.5t61 117t88 93t121 59t158 22z" />
<glyph unicode="1" d="M645 1444h105v-1444h-132v1073h-372v86q54 3 89.5 7t77.5 12.5t69 20.5t56 33t48 49.5t34.5 69.5t24.5 93z" />
<glyph unicode="2" d="M281 971h-140q0 214 128 343.5t341 129.5q210 0 327.5 -113.5t117.5 -286.5q0 -91 -32.5 -169t-82 -131t-120.5 -104t-134.5 -84.5t-139 -77t-120.5 -77.5q-87 -66 -135.5 -131.5t-52.5 -158.5h804v-111h-944q0 112 24 194.5t89 157.5q69 79 156 147.5t160 109.5 t146 87.5t124 88.5t82.5 106t31.5 145q0 137 -89.5 217t-227.5 80t-225.5 -106t-87.5 -256z" />
<glyph unicode="3" d="M250 1024h-131q0 55 11.5 108.5t44 111.5t83 101t135 71t193.5 28q117 0 208 -38t147 -120t56 -199q0 -234 -204 -321q256 -81 256 -356q0 -90 -31.5 -169t-89 -139.5t-147 -95.5t-197.5 -35q-255 0 -373 99.5t-141 347.5h131q0 -161 97 -248.5t261 -87.5 q154 0 256.5 96.5t102.5 229.5q0 68 -24.5 119.5t-65.5 83t-102 51t-126.5 27t-146.5 7.5v107q97 0 168.5 12.5t128.5 42.5t86.5 85t29.5 136q0 86 -43 144.5t-110.5 84t-153.5 25.5q-137 0 -223 -86.5t-86 -222.5z" />
<glyph unicode="4" d="M745 1430h119v-963h201v-111h-201v-356h-131v356h-659v113zM733 1233l-530 -766h530v766z" />
<glyph unicode="5" d="M242 1430h716v-111h-606l-90 -485q84 55 151 74.5t167 19.5q202 0 329 -129t127 -348q0 -110 -37.5 -202t-101 -152t-145.5 -93t-172 -33q-106 0 -191.5 21.5t-155 68t-111.5 126t-50 188.5h131q20 -143 115.5 -218t240.5 -75q157 0 251.5 105.5t94.5 263.5 q0 163 -97.5 264.5t-260.5 101.5q-199 0 -314 -149l-108 14z" />
<glyph unicode="6" d="M1030 1090h-135q-22 114 -92 178.5t-182 64.5q-58 0 -106.5 -14.5t-85 -36t-66.5 -59t-50.5 -72t-36.5 -88t-25.5 -92.5t-17 -99.5t-11 -96.5t-7.5 -95q32 44 51 67.5t56 58.5t71.5 53t87 32t113.5 14q217 0 338 -123.5t121 -341.5q0 -219 -122 -344t-341 -125 q-112 0 -201.5 37t-159 116.5t-107.5 215.5t-38 322q0 78 6.5 151.5t23.5 153t42.5 147.5t67 130t95 105.5t127.5 69t162 25.5q174 0 288 -92t134 -262zM590 795q-148 0 -237 -104t-89 -255q0 -64 18.5 -124t55.5 -113t103 -85t151 -32q88 0 154 31.5t103 85t55 115 t18 130.5q0 170 -83 260.5t-249 90.5z" />
<glyph unicode="7" d="M121 1298v132h919v-123q-119 -134 -217.5 -287.5t-163 -293t-110.5 -278.5t-67.5 -248.5t-26.5 -199.5h-144q21 300 187 664.5t385 633.5h-762z" />
<glyph unicode="8" d="M571 707q-158 0 -254 -78t-96 -232q0 -136 99 -225.5t260 -89.5q145 0 241.5 90.5t96.5 233.5q0 146 -97.5 223.5t-249.5 77.5zM565 1333q-127 0 -210 -68.5t-83 -191.5q0 -126 89 -191t219 -65q127 0 202.5 69.5t75.5 215.5q0 111 -73 171t-220 60zM342 776 q-58 37 -91 63t-60.5 62.5t-38.5 81.5t-11 109q0 148 121.5 250t290.5 102q68 0 130.5 -12.5t118.5 -40t97.5 -68t65.5 -100t24 -131.5q0 -227 -196 -324q119 -43 187.5 -138t68.5 -220q0 -209 -137 -324t-371 -115q-64 0 -127.5 17t-122 52t-103 84.5t-71.5 120t-27 152.5 q0 131 65.5 231.5t186.5 147.5z" />
<glyph unicode="9" d="M109 317h133q47 -235 280 -235q71 0 129 22.5t98 58.5t71 90t48.5 107.5t30 122t17.5 122t8 118.5l-4 4q-137 -225 -390 -225q-202 0 -324 127t-122 338q0 103 29 189.5t85 151t146 100.5t205 36q506 0 506 -729q0 -356 -145.5 -550t-381.5 -194q-176 0 -289 87.5 t-130 258.5zM549 1333q-161 0 -247.5 -99t-86.5 -271q0 -165 88 -258t246 -93q149 0 236 103.5t87 255.5q0 163 -86 262.5t-237 99.5z" />
<glyph unicode=":" horiz-adv-x="569" d="M358 0h-149v180h149v-180zM358 827h-149v181h149v-181z" />
<glyph unicode=";" horiz-adv-x="569" d="M209 180h149v-241q0 -86 -40.5 -142.5t-108.5 -77.5v76q70 42 70 135v70h-70v180zM358 827h-149v181h149v-181z" />
<glyph unicode="&#x3c;" horiz-adv-x="1351" d="M326 522l862 -403v-131l-1024 481v109l1024 456v-131z" />
<glyph unicode="=" horiz-adv-x="1351" d="M1188 774v-123h-1024v123h1024zM1188 377v-123h-1024v123h1024z" />
<glyph unicode="&#x3e;" horiz-adv-x="1351" d="M1188 578v-109l-1024 -481v131l862 403l-862 381v131z" />
<glyph unicode="?" horiz-adv-x="1024" d="M580 373h-119q0 136 20 220t92 161q26 28 73.5 72t78 75t63.5 71.5t49.5 82t16.5 84.5q0 114 -85.5 189t-233.5 75q-147 0 -230.5 -97t-83.5 -249h-125q0 204 122 330t321 126q207 0 326.5 -105t119.5 -280q0 -67 -24.5 -125.5t-66.5 -106.5t-87 -88.5t-98 -92.5t-86 -99 q-43 -60 -43 -243zM598 0h-149v180h149v-180z" />
<glyph unicode="@" horiz-adv-x="1638" d="M1401 342h121q-95 -176 -277.5 -278.5t-386.5 -102.5q-161 0 -305.5 62t-247.5 167t-163 249t-60 304q0 157 62 299.5t165.5 245.5t245.5 164t295 61q146 0 276 -49t224.5 -133.5t150 -205.5t55.5 -259q0 -117 -44 -228.5t-112.5 -190.5t-154 -127t-166.5 -48 q-60 0 -109 25.5t-67 77.5q-45 -47 -112 -75t-132 -28q-128 0 -206 89t-78 219q0 82 23.5 169.5t68.5 167.5t105.5 143.5t141.5 101.5t169 38q74 0 136.5 -35.5t92.5 -99.5l31 94h137q-110 -327 -159 -477.5t-60.5 -192t-11.5 -57.5q0 -57 59 -57q81 0 158.5 79t122.5 194.5 t45 223.5q0 162 -81 286.5t-212 188.5t-287 64q-139 0 -261 -54.5t-206.5 -147t-133 -217.5t-48.5 -263q0 -137 50.5 -260t137 -212.5t208 -141.5t257.5 -52q160 0 306 74t237 205zM690 401q87 0 168 95t125.5 216.5t44.5 217.5q0 62 -39.5 105.5t-101.5 43.5 q-77 0 -146.5 -50t-114 -125t-70.5 -159t-26 -155q0 -78 43 -133.5t117 -55.5z" />
<glyph unicode="A" horiz-adv-x="1333" d="M590 1475h158l565 -1475h-144l-170 463h-671l-174 -463h-144zM664 1356l-289 -774h577z" />
<glyph unicode="B" horiz-adv-x="1357" d="M305 705v-586h354q99 0 165.5 6.5t125 24.5t91 51t51 86t18.5 129q0 72 -20.5 124t-56 83.5t-92.5 50t-118.5 25t-146.5 6.5h-371zM305 1356v-533h352q210 0 297.5 70.5t87.5 210.5q0 138 -93.5 195t-321.5 57h-322zM166 0v1475h532q249 0 366.5 -98.5t117.5 -272.5 q0 -143 -68 -222t-168 -96v-4q149 -23 226 -119.5t77 -246.5q0 -416 -481 -416h-602z" />
<glyph unicode="C" horiz-adv-x="1488" d="M1366 1047h-143q-42 184 -156.5 266t-308.5 82q-104 0 -189.5 -34.5t-144 -95t-99 -144t-59 -179t-18.5 -201.5q0 -104 15.5 -196t53.5 -179t96 -149t149.5 -99.5t207.5 -37.5q183 0 303.5 111t163.5 294h145q-26 -113 -73 -203.5t-122 -164.5t-188 -115t-256 -41 q-133 0 -240.5 41t-180 111.5t-121 170t-70.5 212t-22 241.5q0 205 51.5 357.5t145.5 242.5t216 133t273 43q232 0 384 -120.5t187 -345.5z" />
<glyph unicode="D" horiz-adv-x="1478" d="M166 0v1475h504q148 0 254.5 -21.5t199.5 -89.5q70 -50 120.5 -127.5t76.5 -165.5t37.5 -169.5t11.5 -162.5q0 -365 -178 -559q-49 -55 -109.5 -92t-130.5 -55.5t-135.5 -25.5t-146.5 -7h-504zM305 1356v-1237h334q109 0 188.5 13t157.5 54q70 36 120.5 99t76.5 141 t37.5 154.5t11.5 158.5q0 425 -254 561q-105 56 -338 56h-334z" />
<glyph unicode="E" horiz-adv-x="1251" d="M166 1475h981v-119h-842v-514h760v-119h-760v-604h862v-119h-1001v1475z" />
<glyph unicode="F" horiz-adv-x="1153" d="M166 1475h950v-119h-811v-514h737v-119h-737v-723h-139v1475z" />
<glyph unicode="G" horiz-adv-x="1589" d="M1407 1047h-143q-36 162 -165 255t-298 93q-143 0 -250 -51t-173 -145.5t-98 -221.5t-32 -287q0 -123 36.5 -233t103 -194t169 -133.5t225.5 -49.5q108 0 199.5 35.5t161 104t108.5 177t39 246.5h-497v119h630v-762h-118v252q-54 -93 -123.5 -155t-178 -99t-249.5 -37 t-258 49.5t-204 145.5t-135 246.5t-48 342.5q0 165 42 303t124 242.5t214 163.5t302 59q240 0 405 -118.5t211 -347.5z" />
<glyph unicode="H" horiz-adv-x="1482" d="M305 1475v-633h873v633h139v-1475h-139v723h-873v-723h-139v1475h139z" />
<glyph unicode="I" horiz-adv-x="471" d="M305 1475v-1475h-139v1475h139z" />
<glyph unicode="J" horiz-adv-x="1024" d="M719 1475h139v-1072q0 -442 -416 -442q-96 0 -167.5 28.5t-113 73.5t-66.5 113.5t-33.5 136.5t-8.5 154h140q0 -48 1 -79t6.5 -75t16 -72.5t30 -60t47 -50t69.5 -30.5t96 -12q138 0 199 79.5t61 240.5v1067z" />
<glyph unicode="K" horiz-adv-x="1357" d="M305 1475v-744l731 744h183l-582 -588l684 -887h-170l-614 801l-232 -232v-569h-139v1475h139z" />
<glyph unicode="L" d="M305 1475v-1356h791v-119h-930v1475h139z" />
<glyph unicode="M" horiz-adv-x="1718" d="M166 1475h213l483 -1301h4l475 1301h211v-1475h-139v1315h-4l-483 -1315h-131l-486 1315h-4v-1315h-139v1475z" />
<glyph unicode="N" horiz-adv-x="1484" d="M166 1475h158l852 -1289h4v1289h139v-1475h-162l-848 1286h-4v-1286h-139v1475z" />
<glyph unicode="O" horiz-adv-x="1591" d="M109 735q0 162 45 302.5t129 247t214 167.5t291 61q168 0 302 -60.5t219 -167t129.5 -246.5t44.5 -304q0 -161 -44.5 -300t-128.5 -245.5t-216.5 -167.5t-298.5 -61t-298.5 61t-216 167.5t-127.5 245.5t-44 300zM797 80q112 0 203.5 35t154.5 96t106 145t62.5 179 t19.5 200q0 307 -147.5 483.5t-402.5 176.5q-137 0 -244 -54.5t-171.5 -148t-97 -209.5t-32.5 -248q0 -134 32.5 -249.5t97 -207.5t172 -145t247.5 -53z" />
<glyph unicode="P" horiz-adv-x="1294" d="M305 651v-651h-139v1475h528q492 0 492 -412t-533 -412h-348zM305 1356v-586h307q85 0 146.5 6.5t119 25t92.5 50t56 83.5t21 124q0 76 -18.5 129t-51 86t-91 51t-125 24.5t-165.5 6.5h-291z" />
<glyph unicode="Q" horiz-adv-x="1591" d="M1262 139l196 -151l-78 -94l-217 167q-159 -100 -368 -100q-166 0 -298.5 61t-216 167.5t-127.5 245.5t-44 300q0 125 26 238.5t81 212.5t134 171.5t191.5 114t246.5 41.5q208 0 363.5 -89t243.5 -266t88 -423q0 -181 -56 -335.5t-165 -260.5zM961 371l198 -152 q91 87 137.5 222t46.5 294q0 161 -41.5 288t-115.5 207.5t-174 122.5t-219 42q-110 0 -201.5 -36t-154.5 -98t-106 -146.5t-63 -180t-20 -199.5q0 -135 32.5 -250.5t97 -207.5t172 -144.5t247.5 -52.5q147 0 258 65l-168 129z" />
<glyph unicode="R" horiz-adv-x="1392" d="M305 1356v-568h434q165 0 266 72.5t101 220.5q0 275 -358 275h-443zM305 670v-670h-139v1475h577q248 0 375 -94t127 -294q0 -138 -55 -220.5t-184 -139.5q49 -16 84.5 -49t55 -70.5t31 -89t14.5 -94t3 -96.5q0 -135 17 -218.5t44 -95.5v-14h-153q-22 38 -34.5 128 t-12.5 183q0 79 -9 137.5t-28.5 97.5t-43.5 64t-62 38t-76 17.5t-93 4.5h-438z" />
<glyph unicode="S" horiz-adv-x="1284" d="M88 440h135q8 -96 43.5 -167t93 -112.5t129 -61t158.5 -19.5q96 0 169.5 24.5t117.5 67.5t66 96.5t22 116.5q0 73 -31 126t-83 84.5t-119 53.5t-142 39t-149.5 35.5t-141.5 48.5t-119 72t-83 111.5t-31 162.5q0 78 32.5 148.5t93 126t157.5 88t217 32.5q121 0 217 -34.5 t156 -95t91 -139.5t31 -171h-133q0 81 -30 144.5t-81 101.5t-114.5 57t-136.5 19q-92 0 -164.5 -24.5t-115 -65.5t-64 -90t-21.5 -103q0 -71 31 -122t83 -80.5t120 -50t143 -36.5t149.5 -33.5t142.5 -47.5t120 -72t83 -113t31 -166q0 -203 -141.5 -316.5t-396.5 -113.5 q-156 0 -275 52t-189.5 162t-70.5 265z" />
<glyph unicode="T" d="M639 1356v-1356h-139v1356h-467v119h1073v-119h-467z" />
<glyph unicode="U" horiz-adv-x="1474" d="M166 1475h139v-879q0 -273 102.5 -394.5t329.5 -121.5q233 0 332.5 124.5t99.5 391.5v879h140v-920q0 -290 -144 -442t-428 -152q-285 0 -428 153.5t-143 440.5v920z" />
<glyph unicode="V" horiz-adv-x="1251" d="M37 1475h145l445 -1311l442 1311h145l-512 -1475h-153z" />
<glyph unicode="W" horiz-adv-x="1820" d="M29 1475h139l317 -1278h4l342 1278h156l336 -1278h4l322 1278h143l-387 -1475h-154l-342 1303h-4l-342 -1303h-153z" />
<glyph unicode="X" horiz-adv-x="1251" d="M57 1475h162l404 -621l405 621h162l-483 -717l505 -758h-159l-430 651l-428 -651h-158l508 758z" />
<glyph unicode="Y" horiz-adv-x="1251" d="M25 1475h159l434 -711l445 711h162l-535 -832v-643h-139v633z" />
<glyph unicode="Z" horiz-adv-x="1251" d="M143 1475h1037v-117l-944 -1239h950v-119h-1123v117l945 1239h-865v119z" />
<glyph unicode="[" horiz-adv-x="681" d="M186 1513h392v-102h-261v-1700h261v-102h-392v1904z" />
<glyph unicode="\" horiz-adv-x="569" d="M541 0l-635 1513h123l635 -1513h-123z" />
<glyph unicode="]" horiz-adv-x="681" d="M104 1513h392v-1904h-392v102h261v1700h-261v102z" />
<glyph unicode="^" horiz-adv-x="1351" d="M268 502h-118l471 928h106l473 -928h-117l-411 803z" />
<glyph unicode="_" horiz-adv-x="1024" d="M1024 -244h-1024v119h1024v-119z" />
<glyph unicode="`" horiz-adv-x="681" d="M375 1176l-283 284h160l227 -284h-104z" />
<glyph unicode="a" horiz-adv-x="1142" d="M846 557q-79 -43 -318 -59q-143 -9 -221 -65t-78 -161q0 -91 67.5 -140.5t162.5 -49.5q75 0 143 18.5t123.5 55t88 97t32.5 138.5v166zM272 739h-125q13 178 132.5 264.5t304.5 86.5q84 0 151.5 -17.5t121 -55t83 -103t29.5 -154.5v-578q0 -53 12 -76.5t43 -23.5 q18 0 74 18v-96q-62 -20 -97 -20q-78 0 -112 34t-43 129h-4q-70 -85 -171.5 -130.5t-217.5 -45.5q-149 0 -252 79.5t-103 225.5q0 271 371 320l236 31q80 11 110.5 39t30.5 98q0 100 -64 157.5t-200 57.5q-137 0 -215.5 -54.5t-94.5 -185.5z" />
<glyph unicode="b" horiz-adv-x="1220" d="M629 979q-163 0 -261 -121.5t-98 -341.5q0 -117 40.5 -214t124 -158.5t194.5 -61.5q155 0 258.5 124t103.5 306q0 98 -21.5 181t-64 148t-113.5 101.5t-163 36.5zM270 186v-186h-123v1475h123v-584q57 94 160 146.5t219 52.5q118 0 210 -45.5t148.5 -124.5t85.5 -178.5 t29 -213.5q0 -121 -27.5 -220t-83.5 -175.5t-149.5 -119t-218.5 -42.5q-107 0 -212 57.5t-157 157.5h-4z" />
<glyph unicode="c" horiz-adv-x="1140" d="M1026 727h-125q-33 120 -113.5 186t-201.5 66q-91 0 -161.5 -39t-112 -104.5t-62.5 -143.5t-21 -164q0 -87 20.5 -164.5t62 -141.5t112 -102t162.5 -38q135 0 219 75.5t106 209.5h131q-34 -184 -148.5 -290t-307.5 -106q-123 0 -218 42.5t-153 119t-87.5 176t-29.5 219.5 q0 112 32.5 212.5t92 179t154 124.5t209.5 46q186 0 299.5 -90.5t140.5 -272.5z" />
<glyph unicode="d" horiz-adv-x="1220" d="M588 979q-163 0 -261 -121.5t-98 -341.5q0 -117 40.5 -214t124 -158.5t194.5 -61.5q155 0 258.5 124t103.5 306q0 98 -21.5 181t-64 148t-113.5 101.5t-163 36.5zM950 891v584h123v-1475h-123v186h-4q-52 -100 -156.5 -157.5t-211.5 -57.5q-125 0 -219 42.5t-150 119 t-83.5 175.5t-27.5 220q0 114 29 213.5t85.5 178.5t148.5 124.5t210 45.5q116 0 219 -52.5t160 -146.5z" />
<glyph unicode="e" horiz-adv-x="1150" d="M229 604h693q0 106 -37 189.5t-114.5 134.5t-184.5 51q-79 0 -143.5 -30t-107.5 -82.5t-69.5 -119t-36.5 -143.5zM1053 502h-824q0 -116 39 -209.5t121.5 -152t196.5 -58.5q122 0 208 64t113 180h137q-108 -355 -458 -355q-124 0 -219 42.5t-153 118.5t-87 175t-29 219 q0 156 58 283t170.5 204t259.5 77q221 0 344 -152t123 -436z" />
<glyph unicode="f" horiz-adv-x="569" d="M199 958h-158v103h158v168q0 132 53 201t172 69q62 0 102 -12v-105q-46 11 -73 11q-37 0 -62.5 -12.5t-38.5 -29.5t-20 -47.5t-8.5 -53t-1.5 -58.5v-131h204v-103h-204v-958h-123v958z" />
<glyph unicode="g" horiz-adv-x="1220" d="M588 979q-163 0 -261 -121.5t-98 -341.5q0 -117 40.5 -214t124 -158.5t194.5 -61.5q155 0 258.5 124t103.5 306q0 98 -21.5 181t-64 148t-113.5 101.5t-163 36.5zM950 1061h123v-959q0 -91 -13 -165.5t-47 -145.5t-88.5 -119t-143.5 -77t-206 -29q-111 0 -199 29.5 t-139.5 76t-79 97.5t-30.5 102h131q26 -110 109 -152.5t208 -42.5q70 0 126.5 15t95 40t67 63.5t45 79t26 93.5t12.5 99t3 104q-57 -94 -160 -146.5t-219 -52.5q-118 0 -210 45.5t-148.5 124t-85.5 178t-29 213.5q0 96 17 178.5t54 153t92 120.5t136 78t181 28 q107 0 211.5 -58t156.5 -158h4v187z" />
<glyph unicode="h" horiz-adv-x="1136" d="M270 1475v-562q83 88 161.5 132.5t180.5 44.5q178 0 277.5 -99t99.5 -297v-694h-123v692q0 146 -64.5 216.5t-209.5 70.5q-83 0 -146.5 -33t-101 -90t-56 -126t-18.5 -148v-582h-123v1475h123z" />
<glyph unicode="i" horiz-adv-x="417" d="M270 1061v-1061h-123v1061h123zM270 1292h-123v183h123v-183z" />
<glyph unicode="j" horiz-adv-x="450" d="M180 1061h123v-1202q0 -61 -3 -98.5t-15 -75.5t-35 -58t-62.5 -32.5t-97.5 -12.5q-44 0 -80 8v109q28 -4 51 -4q67 0 93 35.5t26 111.5v1219zM303 1292h-123v183h123v-183z" />
<glyph unicode="k" horiz-adv-x="1032" d="M270 1475v-918l521 504h167l-397 -383l445 -678h-138l-397 592l-201 -191v-401h-123v1475h123z" />
<glyph unicode="l" horiz-adv-x="417" d="M270 1475v-1475h-123v1475h123z" />
<glyph unicode="m" horiz-adv-x="1736" d="M270 1061v-160h4q46 89 134.5 139t193.5 50q71 0 124.5 -15.5t88.5 -45.5t57 -63.5t41 -80.5q52 101 141.5 153t205.5 52q84 0 145 -24t96 -61.5t55.5 -95.5t26.5 -112.5t6 -126.5v-670h-123v733q0 121 -51.5 183.5t-175.5 62.5q-148 0 -228.5 -110.5t-80.5 -297.5v-571 h-123v733q0 121 -51.5 183.5t-175.5 62.5q-104 0 -176 -58.5t-103 -148t-31 -201.5v-571h-123v1061h123z" />
<glyph unicode="n" horiz-adv-x="1136" d="M270 1061v-148q83 88 161.5 132.5t180.5 44.5q178 0 277.5 -99t99.5 -297v-694h-123v692q0 146 -64.5 216.5t-209.5 70.5q-83 0 -146.5 -33t-101 -90t-56 -126t-18.5 -148v-582h-123v1061h123z" />
<glyph unicode="o" horiz-adv-x="1179" d="M590 1090q121 0 216 -43.5t154.5 -120t90 -177.5t30.5 -219q0 -252 -134.5 -405.5t-356.5 -153.5q-103 0 -191 36t-156 104t-106.5 176t-38.5 243q0 158 53.5 282.5t166.5 201t272 76.5zM590 979q-93 0 -164.5 -37.5t-113.5 -101.5t-62.5 -142.5t-20.5 -167.5 q0 -203 94 -325.5t267 -122.5q75 0 136 25t102 67t69 100t40.5 122t12.5 134q0 97 -20 176t-62 141.5t-112.5 97t-165.5 34.5z" />
<glyph unicode="p" horiz-adv-x="1220" d="M629 979q-163 0 -261 -121.5t-98 -341.5q0 -117 40.5 -214t124 -158.5t194.5 -61.5q155 0 258.5 124t103.5 306q0 98 -21.5 181t-64 148t-113.5 101.5t-163 36.5zM270 170v-588h-123v1479h123v-187h4q52 100 157 158t212 58q125 0 218.5 -42.5t149.5 -119.5t83.5 -176 t27.5 -220q0 -114 -29 -213.5t-85.5 -178t-148.5 -124t-210 -45.5q-116 0 -219 52.5t-160 146.5z" />
<glyph unicode="q" horiz-adv-x="1220" d="M588 979q-163 0 -261 -121.5t-98 -341.5q0 -117 40.5 -214t124 -158.5t194.5 -61.5q155 0 258.5 124t103.5 306q0 98 -21.5 181t-64 148t-113.5 101.5t-163 36.5zM950 1061h123v-1479h-123v588q-57 -94 -160 -146.5t-219 -52.5q-118 0 -210 45.5t-148.5 124t-85.5 178 t-29 213.5q0 96 17 178.5t54 153t92 120.5t136 78t181 28q107 0 211.5 -58t156.5 -158h4v187z" />
<glyph unicode="r" horiz-adv-x="675" d="M270 1061v-199h4q50 125 130.5 176.5t216.5 51.5v-134q-351 0 -351 -436v-520h-123v1061h123z" />
<glyph unicode="s" horiz-adv-x="1007" d="M229 797q0 -46 23.5 -80t62.5 -55t90 -36.5t107.5 -28.5t113 -27.5t107.5 -37.5t90 -54t62.5 -81.5t23.5 -115.5q0 -148 -119 -229t-313 -81q-181 0 -288 102t-115 259h125q29 -135 103 -192.5t214 -57.5q126 0 194 57t68 140q0 62 -37.5 102.5t-97.5 60t-132.5 34 t-145 33t-132.5 47.5t-97.5 87t-37.5 143q0 135 100 219.5t273 84.5q367 0 410 -334h-125q-31 223 -287 223q-115 0 -177.5 -49.5t-62.5 -132.5z" />
<glyph unicode="t" horiz-adv-x="569" d="M520 96v-100q-5 -1 -33 -8.5t-55 -12t-53 -4.5q-95 0 -142 48.5t-47 162.5v776h-149v103h149v295h123v-295h199v-103h-199v-727q0 -36 1.5 -56t7 -41t17 -30.5t31.5 -15.5t50 -6q42 0 100 14z" />
<glyph unicode="u" horiz-adv-x="1136" d="M147 1061h123v-696q0 -140 65.5 -211.5t207.5 -71.5q150 0 236.5 111.5t86.5 289.5v578h123v-1061h-123v147h-2q-68 -83 -148.5 -129.5t-191.5 -46.5q-103 0 -178 29.5t-117.5 84t-62 123t-19.5 154.5v699z" />
<glyph unicode="v" horiz-adv-x="1024" d="M35 1061h133l344 -909l344 909h133l-411 -1061h-138z" />
<glyph unicode="w" horiz-adv-x="1478" d="M31 1061h123l274 -905l246 905h137l233 -897l279 897h125l-344 -1061h-131l-232 891h-4l-235 -891h-148z" />
<glyph unicode="x" horiz-adv-x="1024" d="M70 1061h151l293 -422l301 422h156l-383 -512l397 -549h-147l-322 459l-330 -459h-149l407 549z" />
<glyph unicode="y" horiz-adv-x="1003" d="M37 1061h137l340 -911l340 911h133l-395 -1047q-20 -54 -32.5 -85.5t-30.5 -75.5t-31 -69.5t-31 -58.5t-34 -51t-36.5 -38.5t-41.5 -30.5t-46 -16.5t-53 -6.5q-55 0 -117 15v114q66 -12 103 -12q62 0 104 59t103 234z" />
<glyph unicode="z" horiz-adv-x="1024" d="M115 1061h815v-109l-705 -850h731v-102h-888v109l704 849h-657v103z" />
<glyph unicode="{" horiz-adv-x="681" d="M584 1522v-4q-96 -28 -138.5 -86.5t-42.5 -161.5v-422q0 -124 -35.5 -189.5t-131.5 -87.5v-4q52 -14 86 -41t51.5 -68t23.5 -86t6 -110v-393q0 -98 40.5 -161.5t136.5 -88.5v-2q-180 0 -244 72t-64 260v373q0 57 -5 90.5t-22 65.5t-51 52.5t-90 36.5v4q98 19 133 77 t35 161v418q0 161 66.5 228t245.5 67z" />
<glyph unicode="|" horiz-adv-x="454" d="M166 0v1513h123v-1513h-123z" />
<glyph unicode="}" horiz-adv-x="681" d="M104 1518v4q179 0 245.5 -67t66.5 -228v-418q0 -103 35 -161t133 -77v-4q-56 -16 -90 -36.5t-51 -52.5t-22 -65.5t-5 -90.5v-373q0 -96 -13.5 -156.5t-48.5 -101.5t-93.5 -57.5t-151.5 -16.5v2q96 25 136 88.5t40 161.5v393q0 65 6.5 110t24 86t51.5 68t86 41v4 q-96 22 -132 88t-36 189v422q0 103 -42.5 161.5t-138.5 86.5z" />
<glyph unicode="~" horiz-adv-x="1351" d="M453 664q52 0 119 -23t120.5 -51t113 -51t97.5 -23q109 0 203 178l82 -69q-115 -224 -287 -224q-56 0 -148 37t-177 74t-123 37q-63 0 -114.5 -48.5t-107.5 -144.5l-67 97q24 35 39.5 56.5t45.5 54.5t57 52t66 33.5t81 14.5z" />
<glyph unicode="&#xa3;" d="M377 748h340v-86h-309q20 -72 20 -142q0 -184 -195 -383l5 -4q104 55 182 55q74 0 140.5 -21.5t124 -43t110.5 -21.5q65 0 113 29.5t108 87.5l69 -104q-93 -85 -164 -114.5t-192 -29.5q-40 0 -97 22.5t-126.5 45t-138.5 22.5q-16 0 -32 -1.5t-34 -6.5t-29 -8t-32.5 -12 t-28 -11.5t-31.5 -14.5t-28 -13l-72 119q97 70 157 165t60 203q0 96 -43 181h-203v86h166q-2 5 -39 71t-53 121t-16 129q0 168 118 271.5t338 103.5q205 0 335 -121t130 -324h-135q-6 160 -93 247t-235 87q-85 0 -157.5 -28.5t-121 -91.5t-48.5 -150q0 -56 19 -104.5 t62.5 -118.5t55.5 -92z" />
<glyph unicode="&#xa4;" d="M66 225l88 86q-99 144 -99 303q0 91 23.5 164t75.5 146l-88 88l106 108l90 -88q133 101 316 101q152 0 299 -101l90 88l106 -108l-88 -88q52 -74 75 -150t23 -170q0 -82 -24 -150t-74 -143l88 -86l-106 -108l-90 88q-139 -103 -318 -103q-150 0 -297 103l-90 -88z M578 985q-160 0 -267.5 -106t-107.5 -265q0 -150 107 -257t255 -107q154 0 262.5 107.5t108.5 263.5q0 148 -105 256t-253 108z" />
<glyph unicode="&#xa6;" horiz-adv-x="454" d="M166 0v606h123v-606h-123zM166 907v606h123v-606h-123z" />
<glyph unicode="&#xa7;" d="M389 915q-180 -74 -180 -213q0 -69 47.5 -122t126.5 -105l365 -235q82 45 132 99.5t50 131.5q0 39 -16.5 73.5t-47.5 63.5t-57.5 48t-65.5 42zM934 1147h-111q0 130 -62 193t-192 63q-102 0 -165.5 -51t-63.5 -148q0 -57 38.5 -109t100.5 -93.5t136.5 -83t149 -86 t136.5 -92.5t100.5 -112t38.5 -136q0 -57 -17 -104t-52.5 -86.5t-68.5 -66.5t-87 -63q119 -100 119 -225q0 -151 -103 -234.5t-258 -83.5q-171 0 -274.5 103.5t-103.5 267.5h122q0 -127 65.5 -193.5t192.5 -66.5q93 0 160.5 51t67.5 141q0 44 -19 84.5t-57 76.5t-70 60 t-82 56l-268 168q-103 64 -156 137t-53 172q0 98 61.5 176.5t157.5 118.5q-55 62 -81.5 114.5t-26.5 121.5q0 126 98.5 211t272.5 85q168 0 261 -98.5t93 -267.5z" />
<glyph unicode="&#xa9;" horiz-adv-x="1638" d="M821 -39q-158 0 -302.5 61.5t-248.5 165.5t-165.5 248.5t-61.5 302.5q0 157 61.5 300t165.5 247t248.5 165.5t302.5 61.5t301 -61.5t247 -165.5t165 -247t61 -300q0 -158 -61 -302.5t-165 -248.5t-247 -165.5t-301 -61.5zM821 63q139 0 260.5 52.5t207 142.5t135 215 t49.5 266q0 187 -83.5 340.5t-233.5 242.5t-335 89q-186 0 -336.5 -89t-234.5 -242.5t-84 -340.5q0 -189 84 -343.5t234.5 -243.5t336.5 -89zM1104 598h110q-13 -136 -116.5 -218.5t-241.5 -82.5q-192 0 -311 127t-119 321q0 196 115 320.5t309 124.5q142 0 242.5 -78 t121.5 -215h-110q-17 91 -88 147t-164 56q-147 0 -227 -99.5t-80 -252.5q0 -95 35 -176t107 -133t169 -52q93 0 164.5 58.5t83.5 152.5z" />
<glyph unicode="&#xab;" d="M608 467v129l299 231v-129l-213 -168l213 -163v-127zM231 467v129l299 231v-129l-213 -168l213 -163v-127z" />
<glyph unicode="&#xac;" horiz-adv-x="1351" d="M1057 29v422h-893v122h1024v-544h-131z" />
<glyph unicode="&#xad;" horiz-adv-x="681" d="M82 573h518v-122h-518v122z" />
<glyph unicode="&#xae;" horiz-adv-x="1638" d="M821 -39q-158 0 -302.5 61.5t-248.5 165.5t-165.5 248.5t-61.5 302.5q0 157 61.5 300t165.5 247t248.5 165.5t302.5 61.5t301 -61.5t247 -165.5t165 -247t61 -300q0 -158 -61 -302.5t-165 -248.5t-247 -165.5t-301 -61.5zM821 63q139 0 260.5 52.5t207 142.5t135 215 t49.5 266q0 187 -83.5 340.5t-233.5 242.5t-335 89q-186 0 -336.5 -89t-234.5 -242.5t-84 -340.5q0 -189 84 -343.5t234.5 -243.5t336.5 -89zM532 305v866h379q165 0 236.5 -58t71.5 -171q0 -122 -73.5 -179.5t-199.5 -57.5l262 -400h-127l-247 400h-195v-400h-107z M639 1096v-308h240q50 0 87 6.5t70 22.5t50.5 48t17.5 79q0 48 -18 80t-52 47t-67.5 20t-79.5 5h-248z" />
<glyph unicode="&#xb0;" horiz-adv-x="819" d="M719 1137q0 -127 -90.5 -217.5t-216.5 -90.5q-128 0 -218 90.5t-90 217.5q0 125 90.5 216t217.5 91q126 0 216.5 -90.5t90.5 -216.5zM637 1137q0 92 -66.5 158.5t-160.5 66.5q-92 0 -158 -66.5t-66 -158.5q0 -94 66 -160t160 -66q92 0 158.5 66.5t66.5 159.5z" />
<glyph unicode="&#xb1;" horiz-adv-x="1351" d="M614 864v348h123v-348h451v-123h-451v-348h-123v348h-450v123h450zM164 188v123h1024v-123h-1024z" />
<glyph unicode="&#xb6;" horiz-adv-x="1331" d="M1036 1475v-1774h-123v1636h-262v-1636h-123v987q-157 0 -275 115.5t-118 273.5q0 190 120.5 294t336.5 104h444z" />
<glyph unicode="&#xb7;" horiz-adv-x="569" d="M285 815q40 0 69 -29t29 -69t-28.5 -70.5t-69.5 -30.5t-71 30.5t-30 70.5q0 39 31 68.5t70 29.5z" />
<glyph unicode="&#xbb;" d="M907 600v-129l-299 -231v129l213 168l-213 163v127zM530 600v-129l-299 -231v129l213 168l-213 163v127z" />
<glyph unicode="&#x401;" horiz-adv-x="1251" d="M166 1475h981v-119h-842v-514h760v-119h-760v-604h862v-119h-1001v1475zM541 1610h-123v182h123v-182zM866 1610h-123v182h123v-182z" />
<glyph unicode="&#x402;" horiz-adv-x="1593" d="M639 1356v-527q33 4 138 8.5t157 4.5q124 0 219.5 -23.5t156 -62.5t99.5 -95.5t54.5 -118t15.5 -134.5q0 -408 -492 -408h-170v119h62q255 0 357.5 60t102.5 224q0 175 -106 247.5t-346 72.5q-166 0 -248 -16v-707h-139v1356h-467v119h1073v-119h-467z" />
<glyph unicode="&#x403;" horiz-adv-x="1153" d="M166 1475h950v-119h-811v-1356h-139v1475zM670 1614h-123l270 340h189z" />
<glyph unicode="&#x404;" horiz-adv-x="1478" d="M1356 1047h-144q-42 184 -156 266t-308 82q-96 0 -178.5 -29.5t-143 -82t-103.5 -122t-64 -151t-21 -168.5h630v-119h-630q0 -104 17 -196t56 -175t98 -142.5t148.5 -94.5t202.5 -35q183 0 303.5 111t163.5 294h145q-26 -113 -73 -203.5t-122 -164.5t-188 -115t-256 -41 q-133 0 -240.5 41t-180 111.5t-121.5 170t-71 212t-22 241.5q0 205 51.5 357.5t145.5 242.5t216 133t273 43q232 0 384.5 -120.5t187.5 -345.5z" />
<glyph unicode="&#x405;" horiz-adv-x="1284" d="M88 440h135q8 -96 43.5 -167t93 -112.5t129 -61t158.5 -19.5q96 0 169.5 24.5t117.5 67.5t66 96.5t22 116.5q0 73 -31 126t-83 84.5t-119 53.5t-142 39t-149.5 35.5t-141.5 48.5t-119 72t-83 111.5t-31 162.5q0 78 32.5 148.5t93 126t157.5 88t217 32.5q121 0 217 -34.5 t156 -95t91 -139.5t31 -171h-133q0 81 -30 144.5t-81 101.5t-114.5 57t-136.5 19q-92 0 -164.5 -24.5t-115 -65.5t-64 -90t-21.5 -103q0 -71 31 -122t83 -80.5t120 -50t143 -36.5t149.5 -33.5t142.5 -47.5t120 -72t83 -113t31 -166q0 -203 -141.5 -316.5t-396.5 -113.5 q-156 0 -275 52t-189.5 162t-70.5 265z" />
<glyph unicode="&#x406;" horiz-adv-x="471" d="M305 1475v-1475h-139v1475h139z" />
<glyph unicode="&#x407;" horiz-adv-x="471" d="M305 1475v-1475h-139v1475h139zM123 1610h-123v182h123v-182zM471 1610h-123v182h123v-182z" />
<glyph unicode="&#x408;" horiz-adv-x="1024" d="M719 1475h139v-1072q0 -442 -416 -442q-96 0 -167.5 28.5t-113 73.5t-66.5 113.5t-33.5 136.5t-8.5 154h140q0 -48 1 -79t6.5 -75t16 -72.5t30 -60t47 -50t69.5 -30.5t96 -12q138 0 199 79.5t61 240.5v1067z" />
<glyph unicode="&#x409;" horiz-adv-x="2107" d="M274 1475h844v-633h350q86 0 160.5 -12.5t144 -44t118.5 -79.5t78.5 -123t29.5 -171q0 -412 -492 -412h-528v1356h-565v-639q0 -266 -30.5 -431.5t-89.5 -240t-153 -74.5q-44 0 -108 17v112q48 -10 96 -10q73 0 109 175.5t36 555.5v654zM1118 723v-604h291 q99 0 165.5 6.5t125 24.5t91 51t51 86t18.5 129q0 89 -32 150.5t-92.5 95t-135 47.5t-173.5 14h-309z" />
<glyph unicode="&#x40a;" horiz-adv-x="2131" d="M305 1475v-633h699v633h139v-633h350q86 0 160 -12.5t143.5 -44t118.5 -79.5t78.5 -123t29.5 -171q0 -412 -491 -412h-528v723h-699v-723h-139v1475h139zM1143 723v-604h291q99 0 165.5 6.5t124.5 24.5t91 51t51 86t18 129q0 71 -21.5 125t-58.5 88.5t-93 55.5 t-118.5 29.5t-140.5 8.5h-309z" />
<glyph unicode="&#x40b;" horiz-adv-x="1593" d="M639 1356v-527q33 4 138 8.5t157 4.5q124 0 219.5 -23.5t156 -62.5t99.5 -95.5t54.5 -118t15.5 -134.5v-408h-140v403q0 175 -106 247.5t-346 72.5q-166 0 -248 -16v-707h-139v1356h-467v119h1073v-119h-467z" />
<glyph unicode="&#x40c;" horiz-adv-x="1357" d="M305 1475v-744l731 744h183l-582 -588l684 -887h-170l-614 801l-232 -232v-569h-139v1475h139zM631 1610h-123l270 340h189z" />
<glyph unicode="&#x40e;" horiz-adv-x="1187" d="M8 1475h146l438 -1067l450 1067h154l-559 -1285q-57 -130 -122.5 -179.5t-180.5 -49.5q-48 0 -86 10v117q32 -8 78 -8q65 0 99.5 23t61.5 81l29 60zM354 1903h80q34 -166 215 -166q177 0 219 166h76q-13 -126 -94.5 -192t-210.5 -66q-122 0 -199 68.5t-86 189.5z" />
<glyph unicode="&#x40f;" horiz-adv-x="1482" d="M305 1475v-1356h873v1356h139v-1475h-506v-338h-139v338h-506v1475h139z" />
<glyph unicode="&#x410;" horiz-adv-x="1333" d="M590 1475h158l565 -1475h-144l-170 463h-671l-174 -463h-144zM664 1356l-289 -774h577z" />
<glyph unicode="&#x411;" horiz-adv-x="1294" d="M166 1475h913v-119h-774v-514h350q86 0 160.5 -12.5t144 -44t118.5 -79.5t78.5 -123t29.5 -171q0 -412 -492 -412h-528v1475zM305 723v-604h291q99 0 165.5 6.5t125 24.5t91 51t51 86t18.5 129q0 89 -32 150.5t-92.5 95t-135 47.5t-173.5 14h-309z" />
<glyph unicode="&#x412;" horiz-adv-x="1357" d="M305 705v-586h354q99 0 165.5 6.5t125 24.5t91 51t51 86t18.5 129q0 72 -20.5 124t-56 83.5t-92.5 50t-118.5 25t-146.5 6.5h-371zM305 1356v-533h352q210 0 297.5 70.5t87.5 210.5q0 138 -93.5 195t-321.5 57h-322zM166 0v1475h532q249 0 366.5 -98.5t117.5 -272.5 q0 -143 -68 -222t-168 -96v-4q149 -23 226 -119.5t77 -246.5q0 -416 -481 -416h-602z" />
<glyph unicode="&#x413;" horiz-adv-x="1153" d="M166 1475h950v-119h-811v-1356h-139v1475z" />
<glyph unicode="&#x414;" horiz-adv-x="1421" d="M332 1475h923v-1356h113v-457h-139v338h-1036v-338h-140v457h109q50 105 75 169t50.5 161t35 213.5t9.5 279.5v533zM1116 1356h-645v-471q0 -249 -40 -423.5t-124 -342.5h809v1237z" />
<glyph unicode="&#x415;" horiz-adv-x="1251" d="M166 1475h981v-119h-842v-514h760v-119h-760v-604h862v-119h-1001v1475z" />
<glyph unicode="&#x416;" horiz-adv-x="2045" d="M1094 1475v-762l688 762h164l-562 -617l644 -858h-160l-576 764l-198 -219v-545h-140v545l-198 219l-576 -764h-160l644 858l-562 617h164l688 -762v762h140z" />
<glyph unicode="&#x417;" horiz-adv-x="1304" d="M266 1071h-137q0 202 129.5 321t366.5 119q232 0 374 -97t142 -281q0 -255 -230 -355q133 -37 209 -143.5t76 -233.5q0 -208 -138 -324t-413 -116q-120 0 -220 29.5t-175 88t-116.5 150.5t-41.5 211h135q17 -192 122 -276t302 -84q110 0 191 24.5t126.5 68t67 96 t21.5 116.5q0 150 -99.5 244t-269.5 94h-121v119h90q168 0 256 66.5t88 215.5q0 89 -52.5 151.5t-135.5 90t-188 27.5q-76 0 -139 -18.5t-113 -55.5t-78.5 -100.5t-28.5 -147.5z" />
<glyph unicode="&#x418;" horiz-adv-x="1484" d="M305 1475v-1289h4l852 1289h158v-1475h-139v1286h-4l-848 -1286h-162v1475h139z" />
<glyph unicode="&#x419;" horiz-adv-x="1484" d="M305 1475v-1289h4l852 1289h158v-1475h-139v1286h-4l-848 -1286h-162v1475h139zM461 1903h80q34 -166 215 -166q177 0 219 166h76q-13 -126 -95 -192t-211 -66q-122 0 -198.5 68.5t-85.5 189.5z" />
<glyph unicode="&#x41a;" horiz-adv-x="1357" d="M305 1475v-744l731 744h183l-582 -588l684 -887h-170l-614 801l-232 -232v-569h-139v1475h139z" />
<glyph unicode="&#x41b;" horiz-adv-x="1421" d="M274 1475h981v-1475h-139v1356h-702v-639q0 -266 -30.5 -431.5t-89.5 -240t-153 -74.5q-44 0 -108 17v112q48 -10 96 -10q73 0 109 175.5t36 555.5v654z" />
<glyph unicode="&#x41c;" horiz-adv-x="1718" d="M166 1475h213l483 -1301h4l475 1301h211v-1475h-139v1315h-4l-483 -1315h-131l-486 1315h-4v-1315h-139v1475z" />
<glyph unicode="&#x41d;" horiz-adv-x="1482" d="M305 1475v-633h873v633h139v-1475h-139v723h-873v-723h-139v1475h139z" />
<glyph unicode="&#x41e;" horiz-adv-x="1591" d="M109 735q0 162 45 302.5t129 247t214 167.5t291 61q168 0 302 -60.5t219 -167t129.5 -246.5t44.5 -304q0 -161 -44.5 -300t-128.5 -245.5t-216.5 -167.5t-298.5 -61t-298.5 61t-216 167.5t-127.5 245.5t-44 300zM797 80q112 0 203.5 35t154.5 96t106 145t62.5 179 t19.5 200q0 307 -147.5 483.5t-402.5 176.5q-137 0 -244 -54.5t-171.5 -148t-97 -209.5t-32.5 -248q0 -134 32.5 -249.5t97 -207.5t172 -145t247.5 -53z" />
<glyph unicode="&#x41f;" horiz-adv-x="1482" d="M166 1475h1151v-1475h-139v1356h-873v-1356h-139v1475z" />
<glyph unicode="&#x420;" horiz-adv-x="1294" d="M305 651v-651h-139v1475h528q492 0 492 -412t-533 -412h-348zM305 1356v-586h307q85 0 146.5 6.5t119 25t92.5 50t56 83.5t21 124q0 76 -18.5 129t-51 86t-91 51t-125 24.5t-165.5 6.5h-291z" />
<glyph unicode="&#x421;" horiz-adv-x="1488" d="M1366 1047h-143q-42 184 -156.5 266t-308.5 82q-104 0 -189.5 -34.5t-144 -95t-99 -144t-59 -179t-18.5 -201.5q0 -104 15.5 -196t53.5 -179t96 -149t149.5 -99.5t207.5 -37.5q183 0 303.5 111t163.5 294h145q-26 -113 -73 -203.5t-122 -164.5t-188 -115t-256 -41 q-133 0 -240.5 41t-180 111.5t-121 170t-70.5 212t-22 241.5q0 205 51.5 357.5t145.5 242.5t216 133t273 43q232 0 384 -120.5t187 -345.5z" />
<glyph unicode="&#x422;" d="M639 1356v-1356h-139v1356h-467v119h1073v-119h-467z" />
<glyph unicode="&#x423;" horiz-adv-x="1187" d="M8 1475h146l438 -1067l450 1067h154l-559 -1285q-57 -130 -122.5 -179.5t-180.5 -49.5q-48 0 -86 10v117q32 -8 78 -8q65 0 99.5 23t61.5 81l29 60z" />
<glyph unicode="&#x424;" horiz-adv-x="1720" d="M791 1475h139v-127h100q170 0 304 -81t206 -218.5t72 -305.5q0 -172 -72.5 -308t-205.5 -213t-304 -77h-100v-145h-139v145h-101q-171 0 -304 77t-205 213t-72 308q0 168 72 305.5t205.5 218.5t303.5 81h101v127zM791 264v965h-97q-206 0 -326 -135t-120 -346 q0 -210 120.5 -347t325.5 -137h97zM930 1229v-965h96q137 0 239.5 64.5t155 173.5t52.5 246q0 211 -120.5 346t-326.5 135h-96z" />
<glyph unicode="&#x425;" horiz-adv-x="1251" d="M57 1475h162l404 -621l405 621h162l-483 -717l505 -758h-159l-430 651l-428 -651h-158l508 758z" />
<glyph unicode="&#x426;" horiz-adv-x="1482" d="M305 1475v-1356h873v1356h139v-1356h113v-457h-140v338h-1124v1475h139z" />
<glyph unicode="&#x427;" horiz-adv-x="1382" d="M154 1475h139v-398q0 -72 21 -124t56.5 -83.5t92.5 -50t119 -25t147 -6.5q69 0 127.5 3.5t96 8t124.5 15.5v660h140v-1475h-140v692q-146 -22 -475 -22q-448 0 -448 434v371z" />
<glyph unicode="&#x428;" horiz-adv-x="1978" d="M305 1475v-1356h615v1356h139v-1356h614v1356h139v-1475h-1646v1475h139z" />
<glyph unicode="&#x429;" horiz-adv-x="1978" d="M305 1475v-1356h615v1356h139v-1356h614v1356h139v-1356h113v-457h-139v338h-1620v1475h139z" />
<glyph unicode="&#x42a;" horiz-adv-x="1419" d="M-14 1475h444v-633h350q86 0 160.5 -12.5t144 -44t118.5 -79.5t78.5 -123t29.5 -171q0 -412 -492 -412h-528v1356h-305v119zM430 723v-604h291q99 0 165.5 6.5t124.5 24.5t91 51t51 86t18 129q0 71 -21.5 125t-58.5 88.5t-93 55.5t-118.5 29.5t-140.5 8.5h-309z" />
<glyph unicode="&#x42b;" horiz-adv-x="1759" d="M305 1475v-633h350q86 0 160.5 -12.5t144 -44t118.5 -79.5t78.5 -123t29.5 -171q0 -412 -492 -412h-528v1475h139zM305 723v-604h291q99 0 165.5 6.5t125 24.5t91 51t51 86t18.5 129q0 89 -32 150.5t-92.5 95t-135 47.5t-173.5 14h-309zM1593 1475v-1475h-139v1475h139z " />
<glyph unicode="&#x42c;" horiz-adv-x="1294" d="M305 1475v-633h350q86 0 160.5 -12.5t144 -44t118.5 -79.5t78.5 -123t29.5 -171q0 -412 -492 -412h-528v1475h139zM305 723v-604h291q99 0 165.5 6.5t125 24.5t91 51t51 86t18.5 129q0 89 -32 150.5t-92.5 95t-135 47.5t-173.5 14h-309z" />
<glyph unicode="&#x42d;" horiz-adv-x="1480" d="M115 1047q35 225 187 345.5t384 120.5q151 0 273 -43t216 -133t145.5 -242.5t51.5 -357.5q0 -129 -22 -241.5t-71 -212t-121.5 -170t-180 -111.5t-240.5 -41q-143 0 -256 41t-188 115t-122 164.5t-73 203.5h146q43 -183 163.5 -294t303.5 -111q113 0 202.5 34.5t148.5 94 t98 142.5t56 175t17 197h-631v119h631q-16 119 -51.5 215t-95 174t-152 121t-211.5 43q-194 0 -308.5 -82t-156.5 -266h-143z" />
<glyph unicode="&#x42e;" horiz-adv-x="2054" d="M305 842h266q19 146 70 266t134 211.5t204.5 142.5t271.5 51q168 0 302 -60.5t219 -167t129.5 -246.5t44.5 -304q0 -161 -44.5 -300t-128.5 -245.5t-217 -167.5t-299 -61q-163 0 -294 58.5t-216 161.5t-130.5 241.5t-45.5 300.5h-266v-723h-139v1475h139v-633zM1260 80 q112 0 203.5 35t154.5 96t106 145t62.5 179t19.5 200q0 307 -148 483.5t-403 176.5q-110 0 -201.5 -36t-154 -98t-105.5 -146.5t-63 -179.5t-20 -200q0 -134 32.5 -249.5t97 -207.5t172 -145t247.5 -53z" />
<glyph unicode="&#x42f;" horiz-adv-x="1294" d="M989 651h-364l-412 -651h-166l426 664q-364 59 -364 399q0 412 491 412h528v-1475h-139v651zM989 770v586h-291q-99 0 -165.5 -6.5t-124.5 -24.5t-91 -51t-51 -86t-18 -129q0 -72 20.5 -124t56 -83.5t92.5 -50t118.5 -25t146.5 -6.5h307z" />
<glyph unicode="&#x430;" horiz-adv-x="1142" d="M846 557q-79 -43 -318 -59q-143 -9 -221 -65t-78 -161q0 -91 67.5 -140.5t162.5 -49.5q75 0 143 18.5t123.5 55t88 97t32.5 138.5v166zM272 739h-125q13 178 132.5 264.5t304.5 86.5q84 0 151.5 -17.5t121 -55t83 -103t29.5 -154.5v-578q0 -53 12 -76.5t43 -23.5 q18 0 74 18v-96q-62 -20 -97 -20q-78 0 -112 34t-43 129h-4q-70 -85 -171.5 -130.5t-217.5 -45.5q-149 0 -252 79.5t-103 225.5q0 271 371 320l236 31q80 11 110.5 39t30.5 98q0 100 -64 157.5t-200 57.5q-137 0 -215.5 -54.5t-94.5 -185.5z" />
<glyph unicode="&#x431;" horiz-adv-x="1193" d="M244 885q125 205 368 205q118 0 211.5 -43.5t152.5 -120t89.5 -177.5t30.5 -219q0 -252 -134.5 -405.5t-357.5 -153.5q-160 0 -272 79t-165.5 215t-53.5 319q0 97 6 177t21.5 169t46 159t76.5 131.5t116.5 103t161.5 58.5q199 38 265 62t66 69h129q0 -41 -20.5 -74 t-54 -56t-88.5 -43t-109.5 -33t-132.5 -27q-155 -28 -237 -117t-115 -278zM604 82q93 0 164.5 37.5t113.5 102t62.5 142.5t20.5 166q0 97 -20.5 176.5t-62 141.5t-112.5 96.5t-166 34.5q-75 0 -136 -23.5t-102.5 -63.5t-69 -95.5t-40 -118.5t-12.5 -133q0 -126 39.5 -229 t122.5 -168.5t198 -65.5z" />
<glyph unicode="&#x432;" horiz-adv-x="1069" d="M270 502v-400h342q105 0 166.5 51.5t61.5 143.5q0 73 -37 120.5t-93 66t-130 18.5h-310zM270 958v-354h316q90 0 152.5 45t62.5 129q0 95 -59.5 137.5t-182.5 42.5h-289zM147 0v1061h494q128 0 205.5 -73t77.5 -165q0 -204 -166 -262q92 -25 152.5 -92t60.5 -166 q0 -143 -90.5 -223t-218.5 -80h-515z" />
<glyph unicode="&#x433;" horiz-adv-x="827" d="M147 1061h656v-103h-533v-958h-123v1061z" />
<glyph unicode="&#x434;" horiz-adv-x="1132" d="M258 1061h703v-959h106v-378h-123v276h-784v-276h-123v378h94q54 98 83.5 217t36.5 209.5t7 210.5v322zM838 958h-459v-233q0 -199 -22 -338t-95 -285h576v856z" />
<glyph unicode="&#x435;" horiz-adv-x="1150" d="M229 604h693q0 106 -37 189.5t-114.5 134.5t-184.5 51q-79 0 -143.5 -30t-107.5 -82.5t-69.5 -119t-36.5 -143.5zM1053 502h-824q0 -116 39 -209.5t121.5 -152t196.5 -58.5q122 0 208 64t113 180h137q-108 -355 -458 -355q-124 0 -219 42.5t-153 118.5t-87 175t-29 219 q0 156 58 283t170.5 204t259.5 77q221 0 344 -152t123 -436z" />
<glyph unicode="&#x436;" horiz-adv-x="1503" d="M55 1061h160l475 -524v524h123v-524l475 524h160l-381 -418l424 -643h-139l-375 557l-164 -168v-389h-123v389l-164 168l-374 -557h-140l424 643z" />
<glyph unicode="&#x437;" horiz-adv-x="1034" d="M229 758h-118q12 147 122.5 239.5t266.5 92.5q193 0 295 -81t102 -196q0 -96 -59 -163t-142 -81q104 -25 172 -101t68 -187q0 -150 -112.5 -230t-311.5 -80q-195 0 -308 95.5t-128 265.5h121q12 -119 95.5 -184.5t225.5 -65.5q132 0 209.5 54t77.5 143q0 115 -73 175 t-185 60h-109v102h133q76 0 139.5 55.5t63.5 129.5q0 178 -270 178q-119 0 -183 -52t-92 -169z" />
<glyph unicode="&#x438;" horiz-adv-x="1159" d="M270 1061v-897l607 897h135v-1061h-123v897l-604 -897h-138v1061h123z" />
<glyph unicode="&#x439;" horiz-adv-x="1159" d="M270 1061v-897l607 897h135v-1061h-123v897l-604 -897h-138v1061h123zM285 1427h80q34 -165 215 -165q177 0 219 165h75q-13 -126 -94.5 -192t-210.5 -66q-122 0 -198.5 68.5t-85.5 189.5z" />
<glyph unicode="&#x43a;" horiz-adv-x="1032" d="M270 1061v-504l521 504h167l-397 -383l445 -678h-138l-397 592l-201 -191v-401h-123v1061h123z" />
<glyph unicode="&#x43b;" horiz-adv-x="1132" d="M227 1061h736v-1061h-123v958h-490v-198q0 -283 -20 -453q-19 -160 -74 -237.5t-152 -77.5q-52 0 -90 14v100q33 -8 74 -8q48 0 88 70q29 51 40 237.5t11 655.5z" />
<glyph unicode="&#x43c;" horiz-adv-x="1329" d="M147 1061h160l359 -922l356 922h160v-1061h-123v868l-338 -868h-113l-338 868v-868h-123v1061z" />
<glyph unicode="&#x43d;" horiz-adv-x="1142" d="M276 1061v-445h590v445h123v-1061h-123v514h-590v-514h-122v1061h122z" />
<glyph unicode="&#x43e;" horiz-adv-x="1179" d="M590 1090q121 0 216 -43.5t154.5 -120t90 -177.5t30.5 -219q0 -252 -134.5 -405.5t-356.5 -153.5q-103 0 -191 36t-156 104t-106.5 176t-38.5 243q0 158 53.5 282.5t166.5 201t272 76.5zM590 979q-93 0 -164.5 -37.5t-113.5 -101.5t-62.5 -142.5t-20.5 -167.5 q0 -203 94 -325.5t267 -122.5q75 0 136 25t102 67t69 100t40.5 122t12.5 134q0 97 -20 176t-62 141.5t-112.5 97t-165.5 34.5z" />
<glyph unicode="&#x43f;" horiz-adv-x="1130" d="M147 1061h836v-1061h-123v958h-590v-958h-123v1061z" />
<glyph unicode="&#x440;" horiz-adv-x="1220" d="M629 979q-163 0 -261 -121.5t-98 -341.5q0 -117 40.5 -214t124 -158.5t194.5 -61.5q155 0 258.5 124t103.5 306q0 98 -21.5 181t-64 148t-113.5 101.5t-163 36.5zM270 170v-588h-123v1479h123v-187h4q52 100 157 158t212 58q125 0 218.5 -42.5t149.5 -119.5t83.5 -176 t27.5 -220q0 -114 -29 -213.5t-85.5 -178t-148.5 -124t-210 -45.5q-116 0 -219 52.5t-160 146.5z" />
<glyph unicode="&#x441;" horiz-adv-x="1140" d="M1026 727h-125q-33 120 -113.5 186t-201.5 66q-91 0 -161.5 -39t-112 -104.5t-62.5 -143.5t-21 -164q0 -87 20.5 -164.5t62 -141.5t112 -102t162.5 -38q135 0 219 75.5t106 209.5h131q-34 -184 -148.5 -290t-307.5 -106q-123 0 -218 42.5t-153 119t-87.5 176t-29.5 219.5 q0 112 32.5 212.5t92 179t154 124.5t209.5 46q186 0 299.5 -90.5t140.5 -272.5z" />
<glyph unicode="&#x442;" horiz-adv-x="892" d="M29 1061h835v-103h-356v-958h-123v958h-356v103z" />
<glyph unicode="&#x443;" horiz-adv-x="1003" d="M37 1061h137l340 -911l340 911h133l-395 -1047q-20 -54 -32.5 -85.5t-30.5 -75.5t-31 -69.5t-31 -58.5t-34 -51t-36.5 -38.5t-41.5 -30.5t-46 -16.5t-53 -6.5q-55 0 -117 15v114q66 -12 103 -12q62 0 104 59t103 234z" />
<glyph unicode="&#x444;" horiz-adv-x="1781" d="M528 82q101 0 171 67t100 166.5t30 219.5t-34 219.5t-104 162t-163 62.5q-75 0 -134 -39t-94 -103.5t-53 -141.5t-18 -160q0 -90 17 -169.5t52 -144t94 -102t136 -37.5zM829 1513h123v-612q46 81 131.5 135t188.5 54q101 0 181 -45.5t129.5 -124t75 -178t25.5 -212.5 q0 -117 -24 -216.5t-72.5 -177t-129 -121.5t-185.5 -44q-216 0 -320 183v-572h-123v576q-106 -187 -319 -187q-105 0 -185.5 44.5t-129 123.5t-73 179t-24.5 217q0 113 25.5 211.5t75 176t130 122.5t181.5 45q104 0 188.5 -52.5t130.5 -132.5v608zM1253 82q77 0 136 37.5 t94 102t52 144t17 169.5q0 83 -18 160t-53 141.5t-94 103.5t-134 39q-93 0 -163 -62.5t-104 -162t-34 -219.5t30 -219.5t100 -166.5t171 -67z" />
<glyph unicode="&#x445;" horiz-adv-x="1024" d="M70 1061h151l293 -422l301 422h156l-383 -512l397 -549h-147l-322 459l-330 -459h-149l407 549z" />
<glyph unicode="&#x446;" horiz-adv-x="1146" d="M270 1061v-959h590v959h123v-959h107v-381h-123v279h-820v1061h123z" />
<glyph unicode="&#x447;" horiz-adv-x="1044" d="M113 1061h123v-291q0 -93 63 -145t170 -52q101 0 163 4.5t86.5 10.5t55.5 18v455h123v-1061h-123v502q-123 -39 -328 -39q-141 0 -237 84.5t-96 236.5v277z" />
<glyph unicode="&#x448;" horiz-adv-x="1736" d="M270 1061v-959h537v959h123v-959h536v959h123v-1061h-1442v1061h123z" />
<glyph unicode="&#x449;" horiz-adv-x="1753" d="M270 1061v-959h537v959h123v-959h536v959h123v-959h107v-381h-123v279h-1426v1061h123z" />
<glyph unicode="&#x44a;" horiz-adv-x="1103" d="M-23 1061h349v-445h311q168 0 268.5 -86.5t100.5 -224.5q0 -58 -15.5 -105.5t-39.5 -78.5t-58 -54.5t-65.5 -35.5t-68 -19.5t-60 -9.5t-46.5 -2h-450v958h-226v103zM326 514v-412h276q135 0 203.5 53t68.5 150q0 96 -69 152.5t-176 56.5h-303z" />
<glyph unicode="&#x44b;" horiz-adv-x="1435" d="M270 1061v-445h312q168 0 268 -86.5t100 -224.5q0 -80 -29.5 -140t-69.5 -90t-94 -48.5t-89.5 -22.5t-69.5 -4h-451v1061h123zM270 514v-412h277q135 0 203.5 53t68.5 150q0 96 -69.5 152.5t-176.5 56.5h-303zM1288 1061v-1061h-123v1061h123z" />
<glyph unicode="&#x44c;" horiz-adv-x="1048" d="M270 1061v-445h312q168 0 268 -86.5t100 -224.5q0 -80 -29.5 -140t-69.5 -90t-94 -48.5t-89.5 -22.5t-69.5 -4h-451v1061h123zM270 514v-412h277q135 0 203.5 53t68.5 150q0 96 -69.5 152.5t-176.5 56.5h-303z" />
<glyph unicode="&#x44d;" horiz-adv-x="1136" d="M111 727q30 166 145.5 264.5t294.5 98.5q115 0 209 -46t154 -124.5t92 -179t32 -212.5q0 -120 -29 -219.5t-87 -176t-153 -119t-218 -42.5q-193 0 -308 106t-149 290h131q22 -134 106.5 -209.5t219.5 -75.5q88 0 158 37t112 99t64 137.5t22 158.5h-422v102h416 q-6 70 -30.5 133t-66.5 115.5t-107.5 83.5t-145.5 31q-121 0 -201.5 -66t-113.5 -186h-125z" />
<glyph unicode="&#x44e;" horiz-adv-x="1568" d="M270 1061v-445h224q14 137 70 241.5t162.5 168.5t252.5 64q121 0 216 -43.5t154.5 -120t90 -177.5t30.5 -219q0 -252 -134.5 -405.5t-356.5 -153.5q-101 0 -188.5 34t-156 99.5t-108 170.5t-39.5 239h-217v-514h-123v1061h123zM1339 530q0 97 -20 176t-62 141.5 t-112.5 97t-165.5 34.5q-93 0 -164.5 -37.5t-113.5 -101.5t-62.5 -142.5t-20.5 -167.5q0 -203 94 -325.5t267 -122.5q75 0 136 25t102 67t69 100t40.5 122t12.5 134z" />
<glyph unicode="&#x44f;" horiz-adv-x="1048" d="M778 453h-293l-256 -453h-137l268 463q-130 32 -196 107.5t-66 185.5q0 58 15.5 105.5t39.5 78.5t58 54.5t65.5 35.5t68 19.5t60 9.5t46.5 2h450v-1061h-123v453zM778 555v403h-276q-136 0 -204.5 -52.5t-68.5 -149.5q0 -95 69 -148t177 -53h303z" />
<glyph unicode="&#x451;" horiz-adv-x="1150" d="M229 604h693q0 106 -37 189.5t-114.5 134.5t-184.5 51q-79 0 -143.5 -30t-107.5 -82.5t-69.5 -119t-36.5 -143.5zM1053 502h-824q0 -116 39 -209.5t121.5 -152t196.5 -58.5q122 0 208 64t113 180h137q-108 -355 -458 -355q-124 0 -219 42.5t-153 118.5t-87 175t-29 219 q0 156 58 283t170.5 204t259.5 77q221 0 344 -152t123 -436zM492 1223h-123v182h123v-182zM807 1223h-123v182h123v-182z" />
<glyph unicode="&#x452;" horiz-adv-x="1136" d="M147 1475h123v-156h346v-111h-346v-295q78 83 159.5 130t182.5 47q132 0 214 -42t126.5 -146t44.5 -279q0 -195 -22 -337t-62 -234t-106.5 -150.5t-143 -85.5t-184.5 -39v110q76 9 130.5 27.5t99.5 56t73.5 93t48 141t27.5 196t8 261.5q0 166 -58.5 241.5t-215.5 75.5 q-85 0 -150 -35t-101 -92t-53.5 -119.5t-17.5 -128.5v-604h-123v1208h-137v111h137v156z" />
<glyph unicode="&#x453;" horiz-adv-x="827" d="M147 1061h656v-103h-533v-958h-123v1061zM467 1178h-94l205 256h143z" />
<glyph unicode="&#x454;" horiz-adv-x="1140" d="M1026 727h-125q-33 120 -113.5 186t-201.5 66q-80 0 -146 -31.5t-107.5 -84t-66 -115.5t-30.5 -132h415v-102h-422q0 -84 22 -160t64.5 -137.5t112.5 -98t158 -36.5q135 0 219 75.5t106 209.5h131q-34 -184 -148.5 -290t-307.5 -106q-123 0 -218 42.5t-153 119t-87.5 176 t-29.5 219.5q0 112 32.5 212.5t92 179t154 124.5t209.5 46q186 0 299.5 -90.5t140.5 -272.5z" />
<glyph unicode="&#x455;" horiz-adv-x="1007" d="M229 797q0 -46 23.5 -80t62.5 -55t90 -36.5t107.5 -28.5t113 -27.5t107.5 -37.5t90 -54t62.5 -81.5t23.5 -115.5q0 -148 -119 -229t-313 -81q-181 0 -288 102t-115 259h125q29 -135 103 -192.5t214 -57.5q126 0 194 57t68 140q0 62 -37.5 102.5t-97.5 60t-132.5 34 t-145 33t-132.5 47.5t-97.5 87t-37.5 143q0 135 100 219.5t273 84.5q367 0 410 -334h-125q-31 223 -287 223q-115 0 -177.5 -49.5t-62.5 -132.5z" />
<glyph unicode="&#x456;" horiz-adv-x="417" d="M270 1061v-1061h-123v1061h123zM270 1292h-123v183h123v-183z" />
<glyph unicode="&#x457;" horiz-adv-x="417" d="M270 1061v-1061h-123v1061h123zM123 1249h-123v183h123v-183zM418 1249h-123v183h123v-183z" />
<glyph unicode="&#x458;" horiz-adv-x="450" d="M180 1061h123v-1202q0 -61 -3 -98.5t-15 -75.5t-35 -58t-62.5 -32.5t-97.5 -12.5q-44 0 -80 8v109q28 -4 51 -4q67 0 93 35.5t26 111.5v1219zM303 1292h-123v183h123v-183z" />
<glyph unicode="&#x459;" horiz-adv-x="1687" d="M227 1061h682v-445h312q168 0 268 -86.5t100 -224.5q0 -80 -29.5 -140t-69.5 -90t-94 -48.5t-89.5 -22.5t-69.5 -4h-451v958h-436v-198q0 -283 -20 -453q-19 -160 -74 -237.5t-152 -77.5q-52 0 -90 14v100q33 -8 74 -8q48 0 88 70q29 51 40 237.5t11 655.5zM909 514v-412 h277q135 0 203.5 53t68.5 150q0 96 -69.5 152.5t-176.5 56.5h-303z" />
<glyph unicode="&#x45a;" horiz-adv-x="1710" d="M276 1061v-445h533v445h123v-445h311q168 0 268.5 -86.5t100.5 -224.5q0 -80 -29.5 -140t-69.5 -90t-94 -48.5t-89.5 -22.5t-69.5 -4h-451v514h-533v-514h-122v1061h122zM932 514v-412h276q136 0 204.5 53t68.5 150q0 96 -69.5 152.5t-176.5 56.5h-303z" />
<glyph unicode="&#x45b;" horiz-adv-x="1136" d="M147 1475h123v-156h346v-111h-346v-295q83 88 161.5 132.5t180.5 44.5q178 0 277.5 -99t99.5 -297v-694h-123v692q0 146 -64.5 216.5t-209.5 70.5q-83 0 -146.5 -33t-101 -90t-56 -126t-18.5 -148v-582h-123v1208h-137v111h137v156z" />
<glyph unicode="&#x45c;" horiz-adv-x="1032" d="M270 1061v-504l521 504h167l-397 -383l445 -678h-138l-397 592l-201 -191v-401h-123v1061h123zM559 1178h-94l205 256h143z" />
<glyph unicode="&#x45e;" horiz-adv-x="1003" d="M37 1061h137l340 -911l340 911h133l-395 -1047q-20 -54 -32.5 -85.5t-30.5 -75.5t-31 -69.5t-31 -58.5t-34 -51t-36.5 -38.5t-41.5 -30.5t-46 -16.5t-53 -6.5q-55 0 -117 15v114q66 -12 103 -12q62 0 104 59t103 234zM250 1427h80q34 -165 215 -165q177 0 219 165h76 q-13 -126 -94.5 -192t-210.5 -66q-122 0 -199 68.5t-86 189.5z" />
<glyph unicode="&#x45f;" horiz-adv-x="1130" d="M270 1061v-959h590v959h123v-1061h-356v-279h-123v279h-357v1061h123z" />
<glyph unicode="&#x490;" horiz-adv-x="1153" d="M166 1475h811v266h139v-385h-811v-1356h-139v1475z" />
<glyph unicode="&#x491;" horiz-adv-x="827" d="M147 1061h533v199h123v-302h-533v-958h-123v1061z" />
<glyph unicode="&#x2000;" horiz-adv-x="977" />
<glyph unicode="&#x2001;" horiz-adv-x="1954" />
<glyph unicode="&#x2002;" horiz-adv-x="977" />
<glyph unicode="&#x2003;" horiz-adv-x="1954" />
<glyph unicode="&#x2004;" horiz-adv-x="651" />
<glyph unicode="&#x2005;" horiz-adv-x="488" />
<glyph unicode="&#x2006;" horiz-adv-x="325" />
<glyph unicode="&#x2007;" horiz-adv-x="325" />
<glyph unicode="&#x2008;" horiz-adv-x="244" />
<glyph unicode="&#x2009;" horiz-adv-x="390" />
<glyph unicode="&#x200a;" horiz-adv-x="108" />
<glyph unicode="&#x2010;" horiz-adv-x="681" d="M82 573h518v-122h-518v122z" />
<glyph unicode="&#x2011;" horiz-adv-x="681" d="M82 573h518v-122h-518v122z" />
<glyph unicode="&#x2012;" horiz-adv-x="681" d="M82 573h518v-122h-518v122z" />
<glyph unicode="&#x2013;" horiz-adv-x="1024" d="M1024 573v-122h-1024v122h1024z" />
<glyph unicode="&#x2014;" horiz-adv-x="2048" d="M2048 451h-2048v122h2048v-122z" />
<glyph unicode="&#x2018;" horiz-adv-x="454" d="M291 1014h-150v241q0 86 41 142.5t109 77.5v-76q-70 -42 -70 -135v-70h70v-180z" />
<glyph unicode="&#x2019;" horiz-adv-x="454" d="M164 1475h149v-242q0 -86 -40.5 -142t-108.5 -77v76q69 42 69 135v69h-69v181z" />
<glyph unicode="&#x201a;" horiz-adv-x="569" d="M209 180h149v-241q0 -86 -40.5 -142.5t-108.5 -77.5v76q70 42 70 135v70h-70v180z" />
<glyph unicode="&#x201c;" horiz-adv-x="796" d="M635 1014h-150v241q0 86 41 142.5t109 77.5v-76q-70 -42 -70 -135v-70h70v-180zM326 1014h-150v241q0 86 41 142.5t109 77.5v-76q-70 -42 -70 -135v-70h70v-180z" />
<glyph unicode="&#x201d;" horiz-adv-x="796" d="M471 1475h150v-242q0 -86 -41 -142t-109 -77v76q70 42 70 135v69h-70v181zM162 1475h149v-242q0 -86 -40.5 -142t-108.5 -77v76q69 42 69 135v69h-69v181z" />
<glyph unicode="&#x201e;" horiz-adv-x="796" d="M471 180h150v-241q0 -86 -41 -142.5t-109 -77.5v76q70 42 70 135v70h-70v180zM162 180h149v-241q0 -86 -40.5 -142.5t-108.5 -77.5v76q69 42 69 135v70h-69v180z" />
<glyph unicode="&#x2020;" d="M508 1475h123v-471h432v-111h-432v-1233h-123v1233h-432v111h432v471z" />
<glyph unicode="&#x2022;" horiz-adv-x="1024" d="M881 735q0 -151 -108.5 -258.5t-262.5 -107.5q-151 0 -259 107.5t-108 258.5q0 153 108 262t259 109q154 0 262.5 -108.5t108.5 -262.5z" />
<glyph unicode="&#x2026;" horiz-adv-x="2048" d="M418 0h-150v180h150v-180zM1100 0h-150v180h150v-180zM1782 0h-150v180h150v-180z" />
<glyph unicode="&#x202f;" horiz-adv-x="390" />
<glyph unicode="&#x2030;" horiz-adv-x="2635" d="M1348 678q140 0 240 -100t100 -240q0 -139 -100 -238.5t-240 -99.5q-139 0 -238.5 100t-99.5 238q0 139 99.5 239.5t238.5 100.5zM1348 561q-91 0 -156.5 -66t-65.5 -157q0 -90 66 -155.5t156 -65.5q89 0 156 66t67 155q0 90 -66.5 156.5t-156.5 66.5zM475 1430 q139 0 239.5 -100t100.5 -240q0 -139 -100 -238.5t-240 -99.5q-139 0 -238.5 100t-99.5 238q0 139 99.5 239.5t238.5 100.5zM475 1313q-91 0 -156 -66t-65 -157q0 -90 66 -156t155 -66t156 66.5t67 155.5q0 90 -66.5 156.5t-156.5 66.5zM1368 1444l-813 -1473h-106l813 1473 h106zM2159 678q139 0 239.5 -100t100.5 -240q0 -139 -100 -238.5t-240 -99.5q-139 0 -238.5 100t-99.5 238q0 139 99.5 239.5t238.5 100.5zM2159 561q-91 0 -156.5 -66t-65.5 -157q0 -90 66 -155.5t156 -65.5q89 0 156 66t67 155q0 90 -66.5 156.5t-156.5 66.5z" />
<glyph unicode="&#x2039;" horiz-adv-x="796" d="M248 467v129l299 231v-129l-213 -168l213 -163v-127z" />
<glyph unicode="&#x203a;" horiz-adv-x="796" d="M549 600v-129l-299 -231v129l213 168l-213 163v127z" />
<glyph unicode="&#x205f;" horiz-adv-x="488" />
<glyph unicode="&#x20ac;" d="M1049 1339v-131q-119 119 -322 119q-92 0 -165 -34t-120.5 -94t-76.5 -136.5t-39 -167.5h626l-34 -102h-605q-2 -20 -2 -80q0 -64 2 -84h545l-35 -103h-495q25 -209 128 -323.5t273 -114.5q192 0 320 121v-135q-45 -41 -133 -71t-201 -30q-217 0 -348 138t-164 415h-144 l35 103h99q-5 50 -5 84q0 14 1 41.5t1 38.5h-131l35 102h107q12 95 37 176t67 150.5t99 118.5t136 76.5t175 27.5q108 0 196 -31t138 -74z" />
<glyph unicode="&#x2122;" horiz-adv-x="1925" d="M874 1475h197l246 -637h4l242 637h196v-863h-106v772h-4l-297 -772h-70l-297 772h-4v-772h-107v863zM59 1475h656v-82h-275v-781h-106v781h-275v82z" />
<glyph unicode="&#xe000;" horiz-adv-x="1064" d="M0 1065h1065v-1065h-1065v1065z" />
</font>
</defs>
</svg>
